<?xml version="1.0" encoding="UTF-8"?>
<svg width="1440" height="1024" viewBox="0 0 1440 1024" fill="none" xmlns="http://www.w3.org/2000/svg">
    <g opacity="0.3">
        <!-- Main flowing curves -->
        <path d="M-97 1016C76.3333 957.333 423 840 423 840C423 840 939.667 657.667 1198 566.5C1456.33 475.333 1483.67 366.833 1524.5 279.5C1565.33 192.167 1524.5 -29.5 1524.5 -29.5" stroke="url(#paint0_linear)" stroke-width="2"/>
        <path d="M-97 956C76.3333 897.333 423 780 423 780C423 780 939.667 597.667 1198 506.5C1456.33 415.333 1483.67 306.833 1524.5 219.5C1565.33 132.167 1524.5 -89.5 1524.5 -89.5" stroke="url(#paint1_linear)" stroke-width="2"/>
        <path d="M-97 896C76.3333 837.333 423 720 423 720C423 720 939.667 537.667 1198 446.5C1456.33 355.333 1483.67 246.833 1524.5 159.5C1565.33 72.1667 1524.5 -149.5 1524.5 -149.5" stroke="url(#paint2_linear)" stroke-width="2"/>
        
        <!-- Additional decorative elements -->
        <circle cx="200" cy="300" r="5" fill="url(#paint3_radial)" opacity="0.6"/>
        <circle cx="800" cy="500" r="3" fill="url(#paint3_radial)" opacity="0.4"/>
        <circle cx="1200" cy="200" r="4" fill="url(#paint3_radial)" opacity="0.5"/>
        
        <!-- Small flowing lines -->
        <path d="M100 200C150 180 200 190 250 200" stroke="url(#paint1_linear)" stroke-width="1" opacity="0.3"/>
        <path d="M900 600C950 580 1000 590 1050 600" stroke="url(#paint1_linear)" stroke-width="1" opacity="0.3"/>
        <path d="M500 800C550 780 600 790 650 800" stroke="url(#paint1_linear)" stroke-width="1" opacity="0.3"/>
        
        <!-- Diagonal patterns -->
        <path d="M0 0L100 100" stroke="url(#paint2_linear)" stroke-width="0.5" opacity="0.2"/>
        <path d="M1340 924L1440 1024" stroke="url(#paint2_linear)" stroke-width="0.5" opacity="0.2"/>
        <path d="M720 512L820 612" stroke="url(#paint2_linear)" stroke-width="0.5" opacity="0.2"/>
    </g>
    <defs>
        <!-- Linear gradients -->
        <linearGradient id="paint0_linear" x1="713.75" y1="-29.5" x2="713.75" y2="1016" gradientUnits="userSpaceOnUse">
            <stop stop-color="#EC4899"/>
            <stop offset="1" stop-color="#8B5CF6"/>
        </linearGradient>
        <linearGradient id="paint1_linear" x1="713.75" y1="-89.5" x2="713.75" y2="956" gradientUnits="userSpaceOnUse">
            <stop stop-color="#EC4899"/>
            <stop offset="1" stop-color="#8B5CF6"/>
        </linearGradient>
        <linearGradient id="paint2_linear" x1="713.75" y1="-149.5" x2="713.75" y2="896" gradientUnits="userSpaceOnUse">
            <stop stop-color="#EC4899"/>
            <stop offset="1" stop-color="#8B5CF6"/>
        </linearGradient>
        
        <!-- Radial gradient for circles -->
        <radialGradient id="paint3_radial" cx="0" cy="0" r="1" gradientUnits="userSpaceOnUse">
            <stop stop-color="#EC4899"/>
            <stop offset="1" stop-color="#8B5CF6"/>
        </radialGradient>
    </defs>
</svg>
