<?xml version="1.0" encoding="UTF-8"?>
<svg width="1440" height="1024" viewBox="0 0 1440 1024" fill="none" xmlns="http://www.w3.org/2000/svg">
    <g opacity="0.4">
        <path d="M-97 1016C76.3333 957.333 423 840 423 840C423 840 939.667 657.667 1198 566.5C1456.33 475.333 1483.67 366.833 1524.5 279.5C1565.33 192.167 1524.5 -29.5 1524.5 -29.5" stroke="url(#paint0_linear)" stroke-width="2"/>
        <path d="M-97 956C76.3333 897.333 423 780 423 780C423 780 939.667 597.667 1198 506.5C1456.33 415.333 1483.67 306.833 1524.5 219.5C1565.33 132.167 1524.5 -89.5 1524.5 -89.5" stroke="url(#paint1_linear)" stroke-width="2"/>
        <path d="M-97 896C76.3333 837.333 423 720 423 720C423 720 939.667 537.667 1198 446.5C1456.33 355.333 1483.67 246.833 1524.5 159.5C1565.33 72.1667 1524.5 -149.5 1524.5 -149.5" stroke="url(#paint2_linear)" stroke-width="2"/>
    </g>
    <defs>
        <linearGradient id="paint0_linear" x1="713.75" y1="-29.5" x2="713.75" y2="1016" gradientUnits="userSpaceOnUse">
            <stop stop-color="#EC4899"/>
            <stop offset="1" stop-color="#8B5CF6"/>
        </linearGradient>
        <linearGradient id="paint1_linear" x1="713.75" y1="-89.5" x2="713.75" y2="956" gradientUnits="userSpaceOnUse">
            <stop stop-color="#EC4899"/>
            <stop offset="1" stop-color="#8B5CF6"/>
        </linearGradient>
        <linearGradient id="paint2_linear" x1="713.75" y1="-149.5" x2="713.75" y2="896" gradientUnits="userSpaceOnUse">
            <stop stop-color="#EC4899"/>
            <stop offset="1" stop-color="#8B5CF6"/>
        </linearGradient>
    </defs>
</svg>
